<?xml version="1.0" encoding="utf-8"?>
<!-- Generator: Adobe Illustrator 23.0.2, SVG Export Plug-In . SVG Version: 6.00 Build 0)  -->
<svg version="1.1" id="Material_Expand" xmlns="http://www.w3.org/2000/svg" xmlns:xlink="http://www.w3.org/1999/xlink" x="0px"
	 y="0px" viewBox="0 0 59.9 55" style="enable-background:new 0 0 59.9 55;" xml:space="preserve">
<style type="text/css">
	.st0{fill:#FFFFFF;}
</style>
<path class="st0" d="M51.8,23c-0.4-2.2-1.9-4-3.9-4.7V18c0-9.9-8.1-18-18-18s-18,8.1-18,18v0.4c-2.1,0.7-3.6,2.5-3.9,4.7
	C3.1,23.6-0.5,28,0,33c0.4,4.3,3.8,7.6,8,8c0.5,3.3,3.6,5.5,6.9,4.9c2.9-0.5,5-3,5-5.9V24c0-2.5-1.6-4.8-4-5.6V18
	c0-7.7,6.3-14,14-14s14,6.3,14,14v0.4c-2.4,0.8-4,3.1-4,5.6v16c0,2.5,1.6,4.8,4,5.7V49c0,1.1-0.9,2-2,2h-6v4h6c3.3,0,6-2.7,6-6v-3.3
	c2.1-0.7,3.6-2.5,3.9-4.7c4.9-0.5,8.5-4.9,8-9.9C59.4,26.8,56.1,23.5,51.8,23L51.8,23z M3.9,32c0-2.4,1.7-4.4,4-4.9v9.8
	C5.6,36.4,3.9,34.4,3.9,32z M15.9,40c0,1.1-0.9,2-2,2s-2-0.9-2-2V24c0-1.1,0.9-2,2-2s2,0.9,2,2V40z M47.9,40c0,1.1-0.9,2-2,2
	s-2-0.9-2-2V24c0-1.1,0.9-2,2-2s2,0.9,2,2V40z M51.9,36.9v-9.8c2.7,0.5,4.5,3.2,3.9,5.9C55.4,35,53.9,36.5,51.9,36.9z"/>
<rect x="27.9" y="51" class="st0" width="4" height="4"/>
</svg>
